<svg width="425" height="78" viewBox="0 0 425 78" fill="none" xmlns="http://www.w3.org/2000/svg">
<g opacity="0.35">
<path d="M363.346 44.2961C350.277 32.2672 338.719 26.5444 324.692 20.3265C297.583 8.31064 267.033 -0.914388 236.664 0.55977C203.909 2.17407 173.787 16.6054 146.687 34.4747C95.7441 68.0777 48.0653 111.453 21.4157 166.458C-3.37231 217.554 -8.48114 279.925 18.4571 329.835C34.6983 360.913 58.8285 396.003 63.6649 402.837C84.2254 431.889 135.724 482.907 197.848 490.423C283.79 500.821 369.155 410.163 388.25 376.905C407.345 343.647 404.467 332.765 411.727 296.514C413.887 285.726 415.208 277.883 416.406 268.663C420.243 237.52 427.151 206.726 422.691 175.47C420.356 159.088 415.369 143.331 409.767 127.866C404.234 112.664 398.382 97.388 391.365 82.817C384.404 68.448 377.033 56.8937 363.346 44.2961Z" fill="#CADAFB"/>
<path d="M363.346 44.2961C350.277 32.2672 338.719 26.5444 324.692 20.3265C297.583 8.31064 267.033 -0.914388 236.664 0.55977C203.909 2.17407 173.787 16.6054 146.687 34.4747C95.7441 68.0777 48.0653 111.453 21.4157 166.458C-3.37231 217.554 -8.48114 279.925 18.4571 329.835C34.6983 360.913 58.8285 396.003 63.6649 402.837C84.2254 431.889 135.724 482.907 197.848 490.423C283.79 500.821 369.155 410.163 388.25 376.905C407.345 343.647 404.467 332.765 411.727 296.514C413.887 285.726 415.208 277.883 416.406 268.663C420.243 237.52 427.151 206.726 422.691 175.47C420.356 159.088 415.369 143.331 409.767 127.866C404.234 112.664 398.382 97.388 391.365 82.817C384.404 68.448 377.033 56.8937 363.346 44.2961Z" fill="#CAE2FB"/>
</g>
</svg>
