<svg width="417" height="93" viewBox="0 0 417 93" fill="none" xmlns="http://www.w3.org/2000/svg">
<g opacity="0.35">
<path d="M332.63 -371.901C319.878 -380.276 305.785 -386.077 291.033 -390.295C262.524 -398.447 230.991 -403.359 201.118 -397.699C168.9 -391.571 141.064 -373.113 116.695 -351.668C70.8883 -311.343 29.6658 -261.791 10.8786 -203.629C-6.60545 -149.596 -3.04009 -87.1175 30.5411 -41.413C50.9239 -12.8788 79.6747 18.5372 85.4097 24.6366C109.79 50.566 167.849 93.9728 230.416 92.8256C316.97 91.2384 388.977 -10.3528 403.29 -45.9319C417.602 -81.511 413.248 -91.89 415.425 -128.797C416.072 -139.78 416.296 -147.731 416.207 -157.027C415.701 -188.402 418.284 -219.855 409.545 -250.194C404.966 -266.096 397.848 -281.012 390.162 -295.553C382.58 -309.844 374.672 -324.164 365.708 -337.625C356.826 -350.893 346.107 -363.059 332.63 -371.901Z" fill="#CADAFB"/>
<path d="M332.63 -371.901C319.878 -380.276 305.785 -386.077 291.033 -390.295C262.524 -398.447 230.991 -403.359 201.118 -397.699C168.9 -391.571 141.064 -373.113 116.695 -351.668C70.8883 -311.343 29.6658 -261.791 10.8786 -203.629C-6.60545 -149.596 -3.04009 -87.1175 30.5411 -41.413C50.9239 -12.8788 79.6747 18.5372 85.4097 24.6366C109.79 50.566 167.849 93.9728 230.416 92.8256C316.97 91.2384 388.977 -10.3528 403.29 -45.9319C417.602 -81.511 413.248 -91.89 415.425 -128.797C416.072 -139.78 416.296 -147.731 416.207 -157.027C415.701 -188.402 418.284 -219.855 409.545 -250.194C404.966 -266.096 397.848 -281.012 390.162 -295.553C382.58 -309.844 374.672 -324.164 365.708 -337.625C356.826 -350.893 346.107 -363.059 332.63 -371.901Z" fill="#CAE2FB"/>
</g>
</svg>
